# xmcd CD database file
#
# Track frame offsets:
#	150
#	35106
#	52016
#	75080
#	103200
#	121388
#	138736
#	168312
#	174408
#	204396
#	225218
#	241998
#	258918
#	274698
#	296582
#	319474
#
# Disc length: 4424 seconds
#
# Revision: 0
# Processed by: cddbd v1.5.2PL0 Copyright (c) Steve Scherf et al.
# Submitted via: CDex 1.51
#
DISCID=e1114610
DTITLE=Gerald Clayton - Bond: The Paris Sessions
DYEAR=2011
DGENRE=Jazz
TTITLE0=If I Were A Bell 
TTITLE1=Bond: The Cast 
TTITLE2=Bootleg Bruise
TTITLE3=Major Hope
TTITLE4=Bond: Fresh Squeeze
TTITLE5=Snake Bite
TTITLE6=Sun Glimpse 
TTITLE7=Which Persons?
TTITLE8=3D
TTITLE9=Nobody Else But Me 
TTITLE10=All The Things You A
TTITLE11=Bond: The Release 
TTITLE12=Shout And Cry 
TTITLE13=Round Come Round 
TTITLE14=Hank
TTITLE15=Bond: Burn 
EXTD=YEAR: 2011
EXTT0=
EXTT1=
EXTT2=
EXTT3=
EXTT4=
EXTT5=
EXTT6=
EXTT7=
EXTT8=
EXTT9=
EXTT10=
EXTT11=
EXTT12=
EXTT13=
EXTT14=
EXTT15=
PLAYORDER=
